<svg width="25" height="25" viewBox="0 0 25 25" fill="none" xmlns="http://www.w3.org/2000/svg">
    <path
        d="M12.5 22.5C18.0228 22.5 22.5 18.0228 22.5 12.5C22.5 6.97715 18.0228 2.5 12.5 2.5C6.97715 2.5 2.5 6.97715 2.5 12.5C2.5 18.0228 6.97715 22.5 12.5 22.5Z"
        stroke="#080C2E" stroke-width="2" stroke-linecap="round" stroke-linejoin="round" />
    <path d="M8.49998 3.5H9.49998C7.54998 9.34 7.54998 15.66 9.49998 21.5H8.49998" stroke="#080C2E" stroke-width="2"
        stroke-linecap="round" stroke-linejoin="round" />
    <path d="M15.5 3.5C17.45 9.34 17.45 15.66 15.5 21.5" stroke="#080C2E" stroke-width="2" stroke-linecap="round"
        stroke-linejoin="round" />
    <path d="M3.5 16.5V15.5C9.34 17.45 15.66 17.45 21.5 15.5V16.5" stroke="#080C2E" stroke-width="2"
        stroke-linecap="round" stroke-linejoin="round" />
    <path d="M3.5 9.49998C9.34 7.54998 15.66 7.54998 21.5 9.49998" stroke="#080C2E" stroke-width="2"
        stroke-linecap="round" stroke-linejoin="round" />
</svg>