<svg width="46" height="46" viewBox="0 0 46 46" fill="none" xmlns="http://www.w3.org/2000/svg">
    <g id="vuesax/linear/candle">
        <g id="candle">
            <path id="Vector" d="M12.4583 42.1667V28.75" stroke="white" stroke-width="3" stroke-miterlimit="10"
                stroke-linecap="round" stroke-linejoin="round" />
            <path id="Vector_2" d="M12.4583 9.58337V3.83337" stroke="white" stroke-width="3" stroke-miterlimit="10"
                stroke-linecap="round" stroke-linejoin="round" />
            <path id="Vector_3" d="M33.5417 42.1666V36.4166" stroke="white" stroke-width="3" stroke-miterlimit="10"
                stroke-linecap="round" stroke-linejoin="round" />
            <path id="Vector_4" d="M33.5417 17.25V3.83337" stroke="white" stroke-width="3" stroke-miterlimit="10"
                stroke-linecap="round" stroke-linejoin="round" />
            <path id="Vector_5"
                d="M18.2083 13.4167V24.9167C18.2083 27.025 17.25 28.75 14.375 28.75H10.5416C7.66665 28.75 6.70831 27.025 6.70831 24.9167V13.4167C6.70831 11.3084 7.66665 9.58337 10.5416 9.58337H14.375C17.25 9.58337 18.2083 11.3084 18.2083 13.4167Z"
                stroke="white" stroke-width="3" stroke-miterlimit="10" stroke-linecap="round" stroke-linejoin="round" />
            <path id="Vector_6"
                d="M39.2917 21.0833V32.5833C39.2917 34.6917 38.3334 36.4167 35.4584 36.4167H31.625C28.75 36.4167 27.7917 34.6917 27.7917 32.5833V21.0833C27.7917 18.975 28.75 17.25 31.625 17.25H35.4584C38.3334 17.25 39.2917 18.975 39.2917 21.0833Z"
                stroke="white" stroke-width="3" stroke-miterlimit="10" stroke-linecap="round" stroke-linejoin="round" />
        </g>
    </g>
</svg>