<svg width="47" height="46" viewBox="0 0 47 46" fill="none" xmlns="http://www.w3.org/2000/svg">
    <path
        d="M18.9 38.3333H28.1C35.7667 38.3333 38.8333 35.2667 38.8333 27.6V18.4C38.8333 10.7333 35.7667 7.66667 28.1 7.66667H18.9C11.2333 7.66667 8.16666 10.7333 8.16666 18.4V27.6C8.16666 35.2667 11.2333 38.3333 18.9 38.3333Z"
        stroke="#640EF1" stroke-width="3" stroke-linecap="round" stroke-linejoin="round" />
    <path
        d="M20.625 32.5833H26.375C31.1667 32.5833 33.0833 30.6667 33.0833 25.875V20.125C33.0833 15.3333 31.1667 13.4167 26.375 13.4167H20.625C15.8333 13.4167 13.9167 15.3333 13.9167 20.125V25.875C13.9167 30.6667 15.8333 32.5833 20.625 32.5833Z"
        stroke="#640EF1" stroke-width="3" stroke-linecap="round" stroke-linejoin="round" />
    <path d="M15.8525 7.66666V3.83333" stroke="#640EF1" stroke-width="3" stroke-linecap="round"
        stroke-linejoin="round" />
    <path d="M23.5 7.66666V3.83333" stroke="#640EF1" stroke-width="3" stroke-linecap="round" stroke-linejoin="round" />
    <path d="M31.1667 7.66666V3.83333" stroke="#640EF1" stroke-width="3" stroke-linecap="round"
        stroke-linejoin="round" />
    <path d="M38.8333 15.3333H42.6667" stroke="#640EF1" stroke-width="3" stroke-linecap="round"
        stroke-linejoin="round" />
    <path d="M38.8333 23H42.6667" stroke="#640EF1" stroke-width="3" stroke-linecap="round" stroke-linejoin="round" />
    <path d="M38.8333 30.6667H42.6667" stroke="#640EF1" stroke-width="3" stroke-linecap="round"
        stroke-linejoin="round" />
    <path d="M31.1667 38.3333V42.1667" stroke="#640EF1" stroke-width="3" stroke-linecap="round"
        stroke-linejoin="round" />
    <path d="M23.5192 38.3333V42.1667" stroke="#640EF1" stroke-width="3" stroke-linecap="round"
        stroke-linejoin="round" />
    <path d="M15.8525 38.3333V42.1667" stroke="#640EF1" stroke-width="3" stroke-linecap="round"
        stroke-linejoin="round" />
    <path d="M4.33334 15.3333H8.16668" stroke="#640EF1" stroke-width="3" stroke-linecap="round"
        stroke-linejoin="round" />
    <path d="M4.33334 23H8.16668" stroke="#640EF1" stroke-width="3" stroke-linecap="round" stroke-linejoin="round" />
    <path d="M4.33334 30.6667H8.16668" stroke="#640EF1" stroke-width="3" stroke-linecap="round"
        stroke-linejoin="round" />
    <path
        d="M23.5 18.5917L21.6983 21.735C21.2958 22.425 21.6217 23 22.4267 23H24.5733C25.3783 23 25.7042 23.575 25.3017 24.265L23.5 27.4083"
        stroke="#640EF1" stroke-width="3" stroke-linecap="round" stroke-linejoin="round" />
</svg>