<svg xmlns="http://www.w3.org/2000/svg" width="47" height="47" viewBox="0 0 47 47" fill="none">
    <path
        d="M20.2725 5.02412L10.7083 8.60827C8.50414 9.43244 6.70248 12.0391 6.70248 14.3966V28.6374C6.70248 30.8991 8.1975 33.8699 10.0183 35.2307L18.26 41.3833C20.9625 43.415 25.4091 43.415 28.1116 41.3833L36.3533 35.2307C38.1742 33.8699 39.6691 30.8991 39.6691 28.6374V14.3966C39.6691 12.0391 37.8675 9.43244 35.6633 8.60827L26.0991 5.02412C24.47 4.42995 21.8633 4.42995 20.2725 5.02412Z"
        stroke="white" stroke-width="3" stroke-linecap="round" stroke-linejoin="round" />
    <path
        d="M23.1666 21.6801C23.09 21.6801 22.9941 21.6801 22.9175 21.6801C21.1158 21.6226 19.6783 20.1275 19.6783 18.3067C19.6783 16.4475 21.1925 14.9333 23.0516 14.9333C24.9108 14.9333 26.425 16.4475 26.425 18.3067C26.4058 20.1467 24.9683 21.6226 23.1666 21.6801Z"
        stroke="white" stroke-width="3" stroke-linecap="round" stroke-linejoin="round" />
    <path
        d="M19.3525 27.0467C17.5125 28.2734 17.5125 30.2858 19.3525 31.5125C21.4417 32.9117 24.8725 32.9117 26.9617 31.5125C28.8017 30.2858 28.8017 28.2734 26.9617 27.0467C24.8917 25.6475 21.4608 25.6475 19.3525 27.0467Z"
        stroke="white" stroke-width="3" stroke-linecap="round" stroke-linejoin="round" />
</svg>