<svg width="46" height="46" viewBox="0 0 46 46" fill="none" xmlns="http://www.w3.org/2000/svg">
    <g id="vuesax/linear/security-user">
        <g id="security-user">
            <g id="Group">
                <path id="Vector"
                    d="M20.1058 4.27412L10.5417 7.85827C8.33749 8.68244 6.53583 11.2891 6.53583 13.6466V27.8874C6.53583 30.1491 8.03085 33.1199 9.85168 34.4807L18.0933 40.6333C20.7958 42.665 25.2425 42.665 27.945 40.6333L36.1867 34.4807C38.0075 33.1199 39.5025 30.1491 39.5025 27.8874V13.6466C39.5025 11.2891 37.7008 8.68244 35.4966 7.85827L25.9325 4.27412C24.3033 3.67995 21.6966 3.67995 20.1058 4.27412Z"
                    stroke="#640EF1" stroke-width="3" stroke-linecap="round" stroke-linejoin="round" />
            </g>
            <g id="Group_2">
                <path id="Vector_2"
                    d="M23 20.9301C22.9233 20.9301 22.8275 20.9301 22.7508 20.9301C20.9492 20.8726 19.5117 19.3775 19.5117 17.5567C19.5117 15.6975 21.0258 14.1833 22.885 14.1833C24.7442 14.1833 26.2584 15.6975 26.2584 17.5567C26.2392 19.3967 24.8017 20.8726 23 20.9301Z"
                    stroke="#640EF1" stroke-width="3" stroke-linecap="round" stroke-linejoin="round" />
                <path id="Vector_3"
                    d="M19.1858 26.2967C17.3458 27.5234 17.3458 29.5358 19.1858 30.7625C21.275 32.1617 24.7058 32.1617 26.795 30.7625C28.635 29.5358 28.635 27.5234 26.795 26.2967C24.725 24.8975 21.2942 24.8975 19.1858 26.2967Z"
                    stroke="#640EF1" stroke-width="3" stroke-linecap="round" stroke-linejoin="round" />
            </g>
        </g>
    </g>
</svg>