<svg xmlns="http://www.w3.org/2000/svg" width="47" height="47" viewBox="0 0 47 47" fill="none">
    <path
        d="M32.175 36.8783H14.1583C13.3533 36.8783 12.4525 36.2458 12.1841 35.4791L4.24914 13.2841C3.11831 10.1025 4.44081 9.12498 7.16247 11.08L14.6375 16.4275C15.8833 17.29 17.3016 16.8492 17.8383 15.45L21.2116 6.46082C22.285 3.58582 24.0675 3.58582 25.1408 6.46082L28.5141 15.45C29.0508 16.8492 30.4691 17.29 31.6958 16.4275L38.7108 11.425C41.7008 9.27832 43.1383 10.3708 41.9116 13.84L34.1683 35.5175C33.8808 36.2458 32.98 36.8783 32.175 36.8783Z"
        stroke="#640EF1" stroke-width="3" stroke-linecap="round" stroke-linejoin="round" />
    <path d="M12.625 42.6666H33.7083" stroke="#640EF1" stroke-width="3" stroke-linecap="round"
        stroke-linejoin="round" />
    <path d="M18.375 27.3334H27.9583" stroke="#640EF1" stroke-width="3" stroke-linecap="round"
        stroke-linejoin="round" />
</svg>