<svg width="46" height="46" viewBox="0 0 46 46" fill="none" xmlns="http://www.w3.org/2000/svg">
<g id="vuesax/linear/crown">
<g id="crown">
<path id="Vector" d="M32.0084 36.3783H13.9917C13.1867 36.3783 12.2858 35.7458 12.0175 34.9791L4.08252 12.7841C2.95168 9.60248 4.27418 8.62498 6.99585 10.58L14.4708 15.9275C15.7167 16.79 17.135 16.3492 17.6717 14.95L21.045 5.96082C22.1183 3.08582 23.9008 3.08582 24.9742 5.96082L28.3475 14.95C28.8842 16.3492 30.3025 16.79 31.5292 15.9275L38.5442 10.925C41.5342 8.77832 42.9717 9.87082 41.745 13.34L34.0017 35.0175C33.7142 35.7458 32.8133 36.3783 32.0084 36.3783Z" stroke="white" stroke-width="3" stroke-linecap="round" stroke-linejoin="round"/>
<path id="Vector_2" d="M12.4583 42.1666H33.5416" stroke="white" stroke-width="3" stroke-linecap="round" stroke-linejoin="round"/>
<path id="Vector_3" d="M18.2083 26.8334H27.7916" stroke="white" stroke-width="3" stroke-linecap="round" stroke-linejoin="round"/>
</g>
</g>
</svg>
